<?xml version="1.0" ?><!DOCTYPE svg  PUBLIC '-//W3C//DTD SVG 1.1//EN'  'http://www.w3.org/Graphics/SVG/1.1/DTD/svg11.dtd'><svg enable-background="new 0 0 100 100" height="100px" id="Layer_1" version="1.1" viewBox="0 0 100 100" width="100px" xml:space="preserve" xmlns="http://www.w3.org/2000/svg" xmlns:xlink="http://www.w3.org/1999/xlink"><g><g><rect clip-rule="evenodd" fill="#FF7C24" fill-rule="evenodd" height="61.438" width="81.255" x="8.265" y="15.638"/></g><g><path d="M90.878,78.435H6.906V14.279h62.568v2.717H9.623v58.721H88.16V16.997h-7.615v-2.717h10.333V78.435z M77.111,16.997h-4.073    v-2.717h4.073V16.997z"/></g><g><rect clip-rule="evenodd" fill="#39B6CC" fill-rule="evenodd" height="48.689" width="81.255" x="8.265" y="28.387"/><path d="M90.878,78.435H6.906V27.029h83.972V78.435z M9.623,75.717H88.16V29.746H9.623V75.717z"/></g><g><rect clip-rule="evenodd" fill="#F2F2F2" fill-rule="evenodd" height="4.189" width="4.338" x="13.425" y="19.634"/></g><g><rect clip-rule="evenodd" fill="#F2F2F2" fill-rule="evenodd" height="4.194" width="4.338" x="21.196" y="19.577"/></g><g><rect clip-rule="evenodd" fill="#F2F2F2" fill-rule="evenodd" height="4.194" width="4.338" x="28.78" y="19.577"/></g><g><path d="M62.93,70.062c-9.004,0-16.329-7.326-16.329-16.33c0-9.002,7.325-16.326,16.329-16.326    c9.002,0,16.324,7.324,16.324,16.326C79.254,62.736,71.932,70.062,62.93,70.062z M62.93,40.125    c-7.506,0-13.612,6.104-13.612,13.608c0,7.506,6.106,13.612,13.612,13.612c7.503,0,13.607-6.106,13.607-13.612    C76.537,46.229,70.433,40.125,62.93,40.125z" fill="#F2F2F2"/></g><g><path d="M63.319,62.872c-4.785,0-8.679-3.895-8.679-8.683c0-4.785,3.894-8.678,8.679-8.678    c4.788,0,8.683,3.893,8.683,8.678C72.002,58.977,68.107,62.872,63.319,62.872z M63.319,48.228c-3.286,0-5.961,2.674-5.961,5.961    c0,3.29,2.675,5.966,5.961,5.966c3.29,0,5.966-2.676,5.966-5.966C69.285,50.902,66.609,48.228,63.319,48.228z" fill="#F2F2F2"/></g><g><path clip-rule="evenodd" d="M78.021,82.529c-1.958-2.645-4.434-1.197-7.189-3.405    c-0.37-0.293-0.77-0.654-1.197-1.053c-2.222-2.102-2.521-1.712-5.993-3.328c-1.471-0.683-3.51-1.722-1.096-3.078    c1.871-1.048,3.77-1.606,6.982,0.481c1.549,1.005-0.721-2.481-0.885-2.765l-6.944-12.009c-2.539-4.126,2.761-7.142,5.194-3.035    l4.727,7.979c6.983-5.131,11.144-3.059,13.885,0.596c4.434,5.916,2.409,7.363,2.996,8.787c0.596,1.448,1.885,2.79,2.529,4.247    c0.23,0.519,0.471,1,0.707,1.433l-12.441,6.983C78.953,83.833,78.535,83.227,78.021,82.529L78.021,82.529z" fill="#F2F2F2" fill-rule="evenodd"/><path d="M79.296,85.721c-0.447,0-0.884-0.221-1.142-0.622c-0.345-0.533-0.758-1.126-1.227-1.763    c-0.74-0.999-1.537-1.157-2.744-1.396c-1.189-0.235-2.67-0.528-4.202-1.755c-0.431-0.341-0.887-0.758-1.274-1.12    c-1.382-1.307-1.8-1.475-3.186-2.034c-0.619-0.25-1.389-0.56-2.453-1.056c-1.097-0.509-2.934-1.361-2.996-2.979    c-0.037-0.974,0.57-1.821,1.807-2.516c0.98-0.549,2.185-1.109,3.695-1.109c0.527,0,1.064,0.069,1.615,0.21l-6.658-11.514    c-1.021-1.67-1.143-3.457-0.333-4.906c0.737-1.319,2.146-2.138,3.677-2.138c1.674,0,3.199,0.955,4.187,2.622l3.984,6.725    c2.545-1.648,4.925-2.483,7.091-2.483c2.851,0,5.359,1.417,7.453,4.21c3.256,4.343,3.357,6.558,3.183,8.454    c-0.023,0.257-0.051,0.548-0.017,0.631c0.252,0.612,0.689,1.252,1.152,1.929c0.491,0.719,1,1.463,1.363,2.286    c0.201,0.452,0.423,0.901,0.658,1.333c0.355,0.653,0.12,1.471-0.529,1.834l-12.44,6.983C79.75,85.665,79.521,85.721,79.296,85.721    z M63.084,72.924c0.228,0.143,0.582,0.333,1.129,0.587c1.002,0.466,1.735,0.762,2.325,1c1.581,0.638,2.351,0.987,4.028,2.574    c0.342,0.318,0.747,0.689,1.108,0.975c1.019,0.816,1.953,1.001,3.036,1.215c1.422,0.281,3.035,0.601,4.402,2.446    c0.213,0.29,0.416,0.571,0.607,0.844l10.219-5.735c-0.052-0.11-0.103-0.221-0.152-0.332c-0.264-0.597-0.68-1.208-1.122-1.854    c-0.521-0.763-1.061-1.552-1.421-2.428c-0.289-0.701-0.23-1.347-0.178-1.916c0.1-1.077,0.25-2.705-2.65-6.573    c-1.576-2.102-3.303-3.123-5.279-3.123c-1.92,0-4.178,0.944-6.713,2.807c-0.309,0.227-0.7,0.313-1.075,0.237    c-0.376-0.077-0.702-0.309-0.897-0.639l-4.728-7.979c-0.493-0.832-1.149-1.29-1.849-1.29c-0.547,0-1.047,0.286-1.305,0.747    c-0.323,0.578-0.222,1.35,0.285,2.173c0.006,0.011,0.014,0.021,0.02,0.032l6.943,12.009c0.016,0.026,0.049,0.078,0.092,0.147    c1.398,2.255,1.809,3.211,1.322,4.086c-0.258,0.463-0.753,0.751-1.291,0.751c-0.476,0-0.866-0.214-1.153-0.4    c-1.24-0.806-2.292-1.198-3.214-1.198c-0.714,0-1.399,0.221-2.365,0.763C63.164,72.876,63.121,72.901,63.084,72.924z"/></g><g><path clip-rule="evenodd" d="M19.46,48.601c-1.567-0.279-2.751-1.14-3.452-2.645l-0.227-0.486    l1.842-0.89l0.235,0.481c0.582,1.159,1.544,1.654,2.823,1.654c0.904,0,2.197-0.303,2.197-1.424c0-0.192-0.023-0.38-0.109-0.548    c-0.352-0.702-1.655-0.871-2.328-0.933c-2.126-0.192-3.968-1.034-3.968-3.424c0-0.577,0.13-1.145,0.419-1.649    c0.553-0.962,1.52-1.452,2.567-1.625v-1.76h2.011v1.779c1.424,0.27,2.572,1.102,3.26,2.419l0.256,0.49l-1.833,0.914l-0.24-0.49    c-0.491-0.986-1.399-1.428-2.486-1.428c-0.929,0-1.919,0.269-1.919,1.351c0,0.202,0.034,0.404,0.135,0.582    c0.342,0.586,1.395,0.741,1.996,0.789c2.141,0.188,4.279,1.01,4.279,3.506c0,0.664-0.168,1.298-0.543,1.852    c-0.664,0.971-1.775,1.423-2.904,1.558v1.938H19.46V48.601z" fill="#F2F2F2" fill-rule="evenodd"/></g><g><path d="M20.927,50.067v-1.895c2.097-0.082,3.448-1.164,3.448-2.909c0-1.708-1.184-2.732-3.779-2.963    c-1.805-0.149-2.627-0.779-2.627-1.914c0-1.077,0.756-1.895,2.458-1.895c1.429,0,2.442,0.668,2.972,1.731L24.25,39.8    c-0.635-1.212-1.75-2.049-3.323-2.198v-1.707h-0.928v1.693c-1.968,0.154-2.987,1.298-2.987,2.799c0,1.708,1.083,2.665,3.478,2.881    c2.11,0.192,2.934,0.875,2.934,2.024c0,1.212-1.106,1.962-2.741,1.962c-1.529,0-2.65-0.64-3.309-1.953l-0.875,0.423    c0.674,1.438,1.827,2.241,3.501,2.404v1.938H20.927z" fill="#F2F2F2"/></g><g><rect clip-rule="evenodd" fill="#FF7C24" fill-rule="evenodd" height="15.082" width="3.823" x="18.118" y="54.396"/></g><g><rect clip-rule="evenodd" fill="#FF7C24" fill-rule="evenodd" height="17.852" width="3.822" x="26.881" y="51.443"/></g><g><rect clip-rule="evenodd" fill="#FF7C24" fill-rule="evenodd" height="24.508" width="3.823" x="35.7" y="44.575"/></g></g></svg>