<?xml version="1.0" ?><!DOCTYPE svg  PUBLIC '-//W3C//DTD SVG 1.1//EN'  'http://www.w3.org/Graphics/SVG/1.1/DTD/svg11.dtd'><svg enable-background="new 0 0 100 100" height="100px" id="Layer_1" version="1.1" viewBox="0 0 100 100" width="100px" xml:space="preserve" xmlns="http://www.w3.org/2000/svg" xmlns:xlink="http://www.w3.org/1999/xlink"><g><g><path clip-rule="evenodd" d="M11.378,35.18l4.641-8.561l6.213,1.938    c1.053-1.284,2.669-3.362,3.891-4.487l-2.246-6.146l8.729-5.583l4.703,4.761c1.957-0.754,3.996-1.336,6.103-1.736l1.039-6.382    H55.55l1.039,6.382c2.106,0.399,4.145,0.981,6.103,1.736l4.92-4.453l8.166,5.079l-1.899,6.343    c1.183,1.087,2.289,2.255,3.313,3.492l6.569-1.298l4.458,8.123l-4.684,4.728c0.452,1.395,0.822,2.828,1.101,4.295l6.382,1.558    v9.936l-6.382,1.683c-0.269,1.409-0.62,2.79-1.048,4.136l4.78,4.569l-4.352,8.022l-6.719-1.01c-1.053,1.289-2.198,2.5-3.419,3.626    l1.899,6.339l-7.603,4.727l-5.482-4.102c-1.958,0.755-3.997,1.342-6.103,1.741l-1.039,6.382H44.451l-1.039-6.382    c-2.106-0.399-4.146-0.986-6.103-1.741l-5.204,4.275l-7.882-4.9l1.9-6.339c-1.183-1.087-2.29-2.255-3.313-3.496l-6.507,1.414    l-4.689-8.542l4.853-4.419c-0.452-1.399-0.822-2.833-1.101-4.3l-6.382-1.731v-9.421l6.382-2.024    c0.269-1.409,0.62-2.79,1.048-4.131L11.378,35.18z" fill="#39B6CC" fill-rule="evenodd"/><path d="M56.706,92.374h-13.41l-1.074-6.596c-1.575-0.342-3.134-0.79-4.654-1.339l-5.352,4.397l-9.592-5.963l1.957-6.53    c-0.792-0.764-1.557-1.571-2.281-2.409L15.6,75.39L9.908,65.021l5.005-4.558c-0.274-0.923-0.513-1.854-0.712-2.785l-6.576-1.784    V44.439l6.568-2.084c0.187-0.875,0.406-1.745,0.655-2.6l-5.201-4.232l5.71-10.533l6.401,1.997c0.005-0.006,0.01-0.013,0.015-0.019    c0.842-1.04,1.849-2.284,2.773-3.25l-2.32-6.351L32.8,10.604l4.859,4.918c1.482-0.529,3.011-0.965,4.563-1.301l1.074-6.596h13.41    l1.073,6.596c1.569,0.34,3.115,0.782,4.613,1.319l5.067-4.587l9.917,6.168l-1.957,6.534c0.794,0.765,1.561,1.575,2.292,2.418    l6.762-1.336l5.424,9.884l-4.823,4.868c0.277,0.926,0.519,1.864,0.721,2.803l6.58,1.607V55.95l-6.577,1.735    c-0.191,0.885-0.415,1.766-0.668,2.633l4.926,4.708l-5.302,9.771L77.85,73.76c-0.764,0.895-1.578,1.76-2.43,2.583l1.957,6.53    l-9.274,5.766l-5.631-4.213c-1.532,0.555-3.104,1.008-4.693,1.353L56.706,92.374z M45.606,89.657h8.789l1.006-6.181l0.935-0.177    c1.993-0.377,3.967-0.941,5.867-1.674l0.701-0.271l5.341,3.997l5.933-3.689l-1.845-6.157l0.625-0.576    c1.178-1.085,2.285-2.258,3.288-3.486l0.489-0.599l6.541,0.983l3.403-6.272l-4.643-4.437l0.257-0.808    c0.413-1.299,0.752-2.638,1.009-3.979l0.161-0.84l6.197-1.635v-7.822l-6.194-1.512l-0.163-0.859    c-0.263-1.384-0.62-2.773-1.059-4.129l-0.255-0.788l4.553-4.595l-3.491-6.361l-6.387,1.263l-0.516-0.623    c-0.992-1.197-2.064-2.327-3.187-3.358l-0.626-0.575l1.846-6.163l-6.414-3.989l-4.781,4.327l-0.78-0.301    c-1.884-0.727-3.858-1.289-5.867-1.669L55.4,16.524l-1.006-6.181h-8.789L44.6,16.524l-0.936,0.177    c-2.009,0.38-3.983,0.942-5.867,1.669l-0.83,0.32l-4.556-4.612l-6.884,4.404l2.183,5.974l-0.667,0.614    c-0.935,0.861-2.167,2.384-3.157,3.607c-0.215,0.265-0.417,0.516-0.604,0.742l-0.581,0.708l-6.021-1.878l-3.572,6.588l4.879,3.971    l-0.281,0.882c-0.412,1.291-0.751,2.627-1.008,3.973l-0.152,0.795l-6.206,1.969v7.388l6.199,1.682l0.159,0.834    c0.263,1.381,0.619,2.772,1.06,4.136l0.269,0.833l-4.708,4.289l3.686,6.714l6.325-1.374l0.527,0.639    c0.986,1.194,2.057,2.324,3.185,3.361l0.626,0.576l-1.846,6.158l6.173,3.838l5.063-4.16l0.739,0.285    c1.9,0.733,3.874,1.296,5.867,1.674l0.936,0.177L45.606,89.657z"/></g><g><path clip-rule="evenodd" d="M24.93,51.44C25.676,64.637,36.617,75.111,50,75.111    c13.869,0,25.113-11.244,25.113-25.114c0-13.865-11.244-25.109-25.113-25.109V51.44h-7.151h-1.688h-2.193h-1.053h-4.04h-1.779    H24.93z" fill="#FF7C24" fill-rule="evenodd"/></g><g><path clip-rule="evenodd" d="M50,51.44H38.968h-5.093H24.93    c-0.029-0.476-0.043-0.958-0.043-1.443c0-13.865,11.244-25.109,25.113-25.109V51.44z" fill="#F2F2F2" fill-rule="evenodd"/></g><g><path d="M51.359,52.799h-6.875v-2.717h4.158V26.285c-12.469,0.707-22.396,11.072-22.396,23.712c0,0.028,0,0.056,0,0.084h8.774    v2.717H23.651l-0.077-1.276c-0.03-0.5-0.046-1.014-0.046-1.525C23.528,35.403,35.404,23.53,50,23.53h1.358V52.799z M42.849,52.799    h-3.246v-2.717h3.246V52.799z"/></g></g></svg>