<svg height="496pt" viewBox="0 0 496 496" width="496pt" xmlns="http://www.w3.org/2000/svg" xmlns:xlink="http://www.w3.org/1999/xlink"><linearGradient id="a" gradientTransform="matrix(8 0 0 -8 -8 504)" gradientUnits="userSpaceOnUse" x1="32" x2="32" y1="1" y2="63"><stop offset="0" stop-color="#9f2fff"/><stop offset="1" stop-color="#0bb1d3"/></linearGradient><path d="m136 168c0 4.414062-3.585938 8-8 8s-8-3.585938-8-8 3.585938-8 8-8 8 3.585938 8 8zm72 8c4.414062 0 8-3.585938 8-8s-3.585938-8-8-8-8 3.585938-8 8 3.585938 8 8 8zm-8 40h-16c0 8.824219-7.175781 16-16 16s-16-7.175781-16-16h-16c0 17.648438 14.351562 32 32 32s32-14.351562 32-32zm296 112v112c0 13.230469-10.769531 24-24 24h-48v16h16v16h-128v-16h16v-16h-48c-10.414062 0-19.214844-6.710938-22.527344-16h-257.472656v-77.398438c0-24.144531 15.390625-45.496093 38.289062-53.128906l81.710938-27.242187v-16.574219c-17.679688-11.558594-30.910156-29.304688-36.710938-50.136719-19.816406-2.359375-35.289062-19.078125-35.289062-39.519531v-64c0-66.167969 53.832031-120 120-120s120 53.832031 120 120v64c0 20.441406-15.472656 37.160156-35.289062 39.519531-5.789063 20.839844-19.03125 38.578125-36.710938 50.136719v16.574219l51.734375 17.25c3.609375-2.160157 7.769531-3.480469 12.265625-3.480469h192c13.230469 0 24 10.769531 24 24zm-224 48v40h208v-88c0-4.40625-3.585938-8-8-8h-192c-4.414062 0-8 3.59375-8 8zm-14.785156-55.160156-4.390625-1.464844-43.367188 69.394531-33.457031-33.457031v76.6875h80v-104c0-2.511719.496094-4.886719 1.214844-7.160156zm-47.054688-15.6875-30.847656 30.847656 27.230469 27.230469 30.664062-49.0625zm61.839844-121.152344c0-10.414062-6.710938-19.214844-16-22.527344v38.527344c0 2.238281-.167969 4.433594-.335938 6.632812 9.464844-3.21875 16.335938-12.097656 16.335938-22.632812zm-208-64v32.207031c4.671875-3.535156 10.054688-6.183593 16-7.390625v-.816406c0-8.824219 7.175781-16 16-16h144c8.824219 0 16 7.175781 16 16v.808594c5.945312 1.214844 11.328125 3.855468 16 7.390625v-32.199219c0-57.34375-46.65625-104-104-104s-104 46.65625-104 104zm16.335938 86.632812c-.167969-2.199218-.335938-4.394531-.335938-6.632812v-38.527344c-9.289062 3.3125-16 12.113282-16 22.527344 0 10.535156 6.871094 19.414062 16.335938 22.632812zm87.664062 65.367188c39.703125 0 72-32.304688 72-72v-56h-144v56c0 39.695312 32.296875 72 72 72zm-32 9.886719v10.800781l32 32 32-32v-10.800781c-9.9375 3.898437-20.703125 6.113281-32 6.113281s-22.0625-2.214844-32-6.113281zm-37.214844 32.28125 30.664063 49.0625 27.238281-27.230469-30.847656-30.847656zm-82.785156 56.433593v29.398438h48v-24h16v56h80v-76.6875l-33.457031 33.457031-43.367188-69.402343-39.824219 13.273437c-16.359374 5.464844-27.351562 20.710937-27.351562 37.960937zm0 61.398438h48v-16h-48zm392 32h-64v16h64zm72-24v-8h-208v8c0 4.40625 3.585938 8 8 8h192c4.414062 0 8-3.59375 8-8zm-67.199219-41.601562 40.535157-30.398438-40.535157-30.398438-9.59375 12.796876 23.464844 17.601562-23.464844 17.601562zm-64-12.796876-23.464843-17.601562 23.464843-17.601562-9.59375-12.796876-40.535156 30.398438 40.535156 30.398438zm48.421875-47.402343-14.75-6.207031-27.703125 65.808593 14.75 6.207031zm0 0" fill="url(#a)"/></svg>